<svg width="24" height="24" viewBox="0 0 24 24" fill="none" xmlns="http://www.w3.org/2000/svg">
  <path d="M12 12C12 12 14.5 9.5 16 9.5C17.5 9.5 19 10.5 19 12C19 13.5 17.5 14.5 16 14.5C14.5 14.5 12 12 12 12ZM12 12C12 12 9.5 14.5 8 14.5C6.5 14.5 5 13.5 5 12C5 10.5 6.5 9.5 8 9.5C9.5 9.5 12 12 12 12ZM12 12C12 12 14.5 14.5 14.5 16C14.5 17.5 13.5 19 12 19C10.5 19 9.5 17.5 9.5 16C9.5 14.5 12 12 12 12ZM12 12C12 12 9.5 9.5 9.5 8C9.5 6.5 10.5 5 12 5C13.5 5 14.5 6.5 14.5 8C14.5 9.5 12 12 12 12Z" fill="currentColor"/>
</svg>